# xmcd
#
# Track frame offsets: 
#        150
#        12308
#        25396
#        40887
#        59077
#        81543
#        94657
#        114476
#        132902
#        146280
#
# Disc length: 2108 seconds
#
# Revision: 0
# Processed by: cddbd v1.5.2PL0 Copyright (c) Steve Scherf et al.
# Submitted via: ExactAudioCopy v0.99pb4
#
DISCID=88083a0a
DTITLE=Jan Blohm - Melkstraat Confessions
DYEAR=2004
DGENRE=Blues
TTITLE0=baby baby
TTITLE1=anna
TTITLE2=breyten se brief
TTITLE3=9mm blues
TTITLE4=rooiwyn and mary-jane
TTITLE5=boere cinderella
TTITLE6=sondag lover
TTITLE7=aan elize
TTITLE8=voodoo
TTITLE9=melkstraat
EXTD=
EXTT0=
EXTT1=
EXTT2=
EXTT3=
EXTT4=
EXTT5=
EXTT6=
EXTT7=
EXTT8=
EXTT9=
PLAYORDER=
